<?xml version="1.0" encoding="UTF-8"?>
<svg version="1.1" xmlns="http://www.w3.org/2000/svg" width="512" height="512">
<path d="M0 0 C1.46579969 1.14463895 2.94807764 2.2681153 4.43310547 3.38769531 C7.9081071 6.15035258 9.46051518 7.69182094 10.99951172 11.94238281 C10.68701172 15.31738281 10.68701172 15.31738281 9.06201172 18.31738281 C3.69855592 21.49572699 -1.32593852 20.14818487 -7.31298828 19.31738281 C-15.59355154 18.1814805 -23.84285754 18.07428087 -32.18798828 18.06738281 C-32.92220001 18.06670807 -33.65641174 18.06603333 -34.41287231 18.06533813 C-45.94785883 18.08215184 -57.05551026 18.6537367 -68.31298828 21.31738281 C-69.06 21.48898926 -69.80701172 21.6605957 -70.57666016 21.83740234 C-81.70392366 24.46428164 -92.04813001 28.30780093 -102.31298828 33.31738281 C-102.95896973 33.63078613 -103.60495117 33.94418945 -104.27050781 34.26708984 C-117.47138089 40.76024247 -128.61232177 49.2190717 -139.31298828 59.31738281 C-140.05033203 59.99027344 -140.78767578 60.66316406 -141.54736328 61.35644531 C-165.54063963 84.07348356 -180.6076749 119.0492121 -182.51977539 151.86645508 C-182.91752262 167.16371026 -182.9382281 182.38720009 -179.31298828 197.31738281 C-179.10319336 198.18282715 -178.89339844 199.04827148 -178.67724609 199.93994141 C-172.63590666 223.78932951 -161.63089401 245.60314346 -146.87524414 265.22973633 C-144.57747856 268.32076355 -143.3420766 270.12669274 -142.75048828 274.00488281 C-143.31298828 277.31738281 -143.31298828 277.31738281 -144.75048828 279.81738281 C-148.64894371 282.0994055 -151.98691769 281.14939987 -156.31298828 280.31738281 C-159.68575669 279.36375326 -162.92677447 278.16031399 -166.18798828 276.87988281 C-167.54621704 276.35297852 -167.54621704 276.35297852 -168.93188477 275.81542969 C-211.45136435 258.86237285 -245.54181168 227.07083595 -264.31298828 185.31738281 C-280.96796033 146.38708818 -281.72941931 103.15061416 -266.50048828 63.62988281 C-265.46280815 61.17622904 -264.41042128 58.74342252 -263.31298828 56.31738281 C-263.03116699 55.68799805 -262.7493457 55.05861328 -262.45898438 54.41015625 C-255.31645588 38.70527029 -245.68229664 24.27839434 -234.31298828 11.31738281 C-233.56275391 10.45757812 -232.81251953 9.59777344 -232.03955078 8.71191406 C-229.8278429 6.21713776 -227.58029304 3.76162788 -225.31298828 1.31738281 C-224.73677734 0.67542969 -224.16056641 0.03347656 -223.56689453 -0.62792969 C-212.51471369 -12.39394849 -198.62978875 -21.42387439 -184.31298828 -28.68261719 C-183.20310547 -29.2459375 -182.09322266 -29.80925781 -180.94970703 -30.38964844 C-119.9117182 -59.8279947 -50.9151902 -39.85136935 0 0 Z " fill="#FFFFFF" transform="translate(420.31298828125,52.6826171875)"/>
<path d="M0 0 C3.625 0.375 3.625 0.375 5.82006836 2.02368164 C8.1072687 5.0032605 8.12238894 6.64177356 8.12890625 10.37109375 C8.1453418 11.55912598 8.16177734 12.7471582 8.17871094 13.97119141 C8.18161133 15.23882324 8.18451172 16.50645508 8.1875 17.8125 C8.69152808 44.29361187 13.35585099 68.33663998 24.625 92.375 C24.93808105 93.04515137 25.25116211 93.71530273 25.57373047 94.40576172 C34.53768655 113.20207195 48.14369088 129.73243373 64.625 142.375 C65.47707031 143.04273438 66.32914062 143.71046875 67.20703125 144.3984375 C97.50829893 167.38560608 136.12453044 177.05831906 173.6875 172.125 C204.86952488 167.68068989 234.93383632 154.24665888 258.625 133.375 C259.51058594 132.59898437 260.39617187 131.82296875 261.30859375 131.0234375 C264.98965438 127.75259908 268.57286759 124.47138005 271.9375 120.875 C274.71438474 118.2918514 275.87008737 117.375 279.625 117.375 C283.43763347 118.43899073 284.37511007 119.0001651 286.625 122.375 C287.10516997 128.20352469 285.93651976 133.44507622 284.5625 139.0625 C284.22859253 140.43583496 284.22859253 140.43583496 283.88793945 141.83691406 C275.86339667 173.73809677 261.00835025 200.32356646 238.625 224.375 C237.97402344 225.09171875 237.32304687 225.8084375 236.65234375 226.546875 C225.23911807 238.59783391 211.34649525 247.88157578 196.625 255.375 C195.70968506 255.84993896 195.70968506 255.84993896 194.77587891 256.33447266 C156.89491305 275.80884839 112.41656561 276.99889413 72.20751953 264.25488281 C65.09743234 261.83242542 58.34458838 258.71263498 51.625 255.375 C50.91005371 255.02566406 50.19510742 254.67632812 49.45849609 254.31640625 C33.37980968 246.39851422 18.85880374 236.45858775 5.625 224.375 C5.1201709 223.91544922 4.6153418 223.45589844 4.09521484 222.98242188 C-18.33127072 202.27662012 -33.61528084 174.33214102 -39.375 144.375 C-39.55232666 143.46073242 -39.72965332 142.54646484 -39.91235352 141.60449219 C-41.51070305 132.45683976 -41.73398015 123.50464487 -41.6875 114.25 C-41.68534485 113.47709625 -41.6831897 112.7041925 -41.68096924 111.90786743 C-41.62841821 100.15390401 -41.12836847 88.84736863 -38.375 77.375 C-38.18164062 76.53324219 -37.98828125 75.69148438 -37.7890625 74.82421875 C-34.06282301 58.93019721 -19.46099646 2.16233294 0 0 Z " fill="#FFFFFF" transform="translate(64.375,203.625)"/>
<path d="M0 0 C0.82886719 0.62132812 1.65773438 1.24265625 2.51171875 1.8828125 C31.71832301 24.53283213 50.14101103 54.96825055 58.8125 90.75 C59.10483521 91.95305786 59.10483521 91.95305786 59.40307617 93.18041992 C62.5013327 106.76550331 63.40870786 120.18770271 63.375 134.0625 C63.37478851 134.87126587 63.37457703 135.68003174 63.37435913 136.51330566 C63.3400531 149.70438143 62.32620689 162.18713402 59 175 C58.81808105 175.74507812 58.63616211 176.49015625 58.44873047 177.2578125 C52.00333974 203.33889313 38.41886371 226.57269609 20 246 C19.10667969 246.95777344 18.21335937 247.91554688 17.29296875 248.90234375 C-10.70896429 278.32818461 -51.81284862 295.22433979 -92.13671875 296.3828125 C-139.04733572 297.39630803 -139.04733572 297.39630803 -150 289 C-151.42041821 286.15916359 -151.31452272 284.14522722 -151 281 C-148.19002535 277.58667686 -145.2219779 275.92675616 -141.23046875 274.1171875 C-140.10116943 273.59471436 -138.97187012 273.07224121 -137.80834961 272.53393555 C-136.61346924 271.98648682 -135.41858887 271.43903809 -134.1875 270.875 C-94.64712305 252.39577227 -64.37852746 221.3715005 -48.86816406 180.44091797 C-39.69952107 154.66248923 -38.23095511 126.70669919 -44 100 C-44.2784375 98.7109375 -44.556875 97.421875 -44.84375 96.09375 C-50.39895341 73.29826015 -61.95313796 50.75543336 -78.82421875 34.234375 C-81 32 -81 32 -81 30 C-81.59167969 29.74089844 -82.18335938 29.48179687 -82.79296875 29.21484375 C-85.16741678 27.9078467 -86.500505 26.56610827 -88.3125 24.5625 C-103.04492119 9.5872367 -123.00109159 -1.35946621 -142.60424805 -8.41479492 C-146.87592555 -9.97753933 -150.20635902 -11.2059836 -153 -15 C-153.53745746 -18.76220219 -153.73751825 -20.95550425 -151.5078125 -24.11328125 C-147.98289186 -26.76520752 -144.67900647 -27.10770409 -140.375 -27.6875 C-139.61832031 -27.80416016 -138.86164063 -27.92082031 -138.08203125 -28.04101562 C-135.72463508 -28.39402673 -133.36516286 -28.70374807 -131 -29 C-130.27393555 -29.09643799 -129.54787109 -29.19287598 -128.79980469 -29.29223633 C-84.85253463 -34.47434412 -35.94833637 -27.28676871 0 0 Z " fill="#FFFFFF" transform="translate(426,207)"/>
</svg>
